<?xml version="1.0" standalone="no"?>
<!DOCTYPE svg PUBLIC "-//W3C//DTD SVG 20010904//EN"
 "http://www.w3.org/TR/2001/REC-SVG-20010904/DTD/svg10.dtd">
<svg version="1.0" xmlns="http://www.w3.org/2000/svg"
 width="1176.000000pt" height="961.000000pt" viewBox="0 0 1176.000000 961.000000"
 preserveAspectRatio="xMidYMid meet">

<g transform="translate(0.000000,961.000000) scale(0.100000,-0.100000)"
fill="#000000" stroke="none">
<path d="M2977 5958 c-3 -112 -14 -455 -23 -762 -16 -542 -16 -560 2 -573 10
-7 21 -10 25 -6 4 5 10 94 13 198 4 105 11 300 16 435 5 135 12 322 15 415 3
94 8 243 12 333 l6 162 -30 0 -30 0 -6 -202z"/>
<path d="M6860 5201 c-8 -5 -267 -95 -575 -201 -308 -106 -670 -231 -805 -277
-135 -47 -321 -111 -415 -143 -93 -32 -316 -109 -495 -170 -179 -62 -361 -124
-405 -140 -71 -24 -80 -30 -77 -50 3 -16 0 -20 -10 -15 -10 6 -10 5 -1 -5 9
-10 52 2 215 58 112 39 469 161 793 272 484 166 1603 549 1773 607 37 13 42
18 36 37 -9 30 -17 36 -34 27z"/>
<path d="M2783 4419 c-399 -62 -664 -266 -640 -495 14 -137 114 -248 312 -345
129 -63 182 -77 405 -104 128 -16 146 -15 340 17 349 58 594 247 594 459 0
199 -200 370 -521 445 -122 28 -379 41 -490 23z m413 -169 c154 -39 277 -121
320 -215 42 -89 26 -163 -51 -241 -87 -87 -200 -136 -372 -159 -146 -21 -284
-9 -411 36 -108 37 -157 66 -210 123 -94 102 -96 205 -6 305 84 93 191 140
389 172 77 12 254 1 341 -21z"/>
<path d="M2996 4080 c-68 -21 -86 -73 -38 -110 23 -19 37 -21 94 -18 76 4 111
26 106 66 -6 49 -95 83 -162 62z"/>
<path d="M2551 4004 c0 -11 3 -14 6 -6 3 7 2 16 -1 19 -3 4 -6 -2 -5 -13z"/>
<path d="M2452 3985 c6 -14 13 -23 16 -21 7 7 -9 46 -18 46 -5 0 -4 -11 2 -25z"/>
<path d="M2707 3990 c-21 -12 -37 -27 -34 -33 8 -25 240 -157 276 -157 22 0
80 37 88 56 11 29 -16 64 -64 85 -27 11 -58 30 -71 42 -34 31 -142 35 -195 7z"/>
<path d="M2435 3940 c1 -15 9 -40 19 -54 19 -30 32 -35 16 -7 -5 11 -7 28 -4
38 5 15 4 15 -5 3 -9 -12 -11 -10 -11 12 0 15 -4 29 -8 32 -5 3 -8 -8 -7 -24z"/>
<path d="M2501 3904 c0 -11 3 -14 6 -6 3 7 2 16 -1 19 -3 4 -6 -2 -5 -13z"/>
<path d="M2531 3894 c0 -11 3 -14 6 -6 3 7 2 16 -1 19 -3 4 -6 -2 -5 -13z"/>
<path d="M2430 3885 c0 -5 5 -17 10 -25 5 -8 10 -10 10 -5 0 6 -5 17 -10 25
-5 8 -10 11 -10 5z"/>
<path d="M2750 3830 c0 -11 4 -20 9 -20 5 0 7 9 4 20 -3 11 -7 20 -9 20 -2 0
-4 -9 -4 -20z"/>
<path d="M3200 3830 c0 -5 7 -10 15 -10 8 0 15 5 15 10 0 6 -7 10 -15 10 -8 0
-15 -4 -15 -10z"/>
<path d="M3310 3820 c0 -5 5 -10 11 -10 5 0 7 5 4 10 -3 6 -8 10 -11 10 -2 0
-4 -4 -4 -10z"/>
<path d="M2720 3789 c0 -12 39 -31 57 -27 9 2 1 9 -21 19 -20 9 -36 13 -36 8z"/>
<path d="M3210 3765 c-7 -9 -10 -19 -6 -22 4 -4 10 -3 14 3 4 6 16 16 27 22
20 11 20 11 -1 12 -12 0 -27 -7 -34 -15z"/>
<path d="M3298 3753 c12 -2 32 -2 45 0 12 2 2 4 -23 4 -25 0 -35 -2 -22 -4z"/>
<path d="M2768 3723 c6 -2 18 -2 25 0 6 3 1 5 -13 5 -14 0 -19 -2 -12 -5z"/>
<path d="M3285 3719 c-11 -16 -2 -17 25 -2 24 12 24 13 3 13 -12 0 -25 -5 -28
-11z"/>
<path d="M3225 3700 c-3 -5 1 -10 10 -10 9 0 13 5 10 10 -3 6 -8 10 -10 10 -2
0 -7 -4 -10 -10z"/>
<path d="M0 4362 l0 -29 298 -41 c1543 -217 1673 -234 1688 -219 15 15 -44 45
-101 52 -33 3 -420 57 -860 120 -440 63 -838 119 -885 125 -47 6 -97 13 -112
16 -25 5 -28 3 -28 -24z"/>
<path d="M3694 4212 c11 -5 23 -17 28 -28 6 -16 7 -15 5 6 -1 19 -8 26 -27 27
-21 2 -22 1 -6 -5z"/>
<path d="M4020 4185 c0 -17 2 -18 24 -9 23 9 20 24 -4 24 -11 0 -20 -7 -20
-15z"/>
<path d="M3773 4149 c-6 -6 -9 -19 -6 -28 5 -21 53 -17 53 5 0 19 -34 36 -47
23z"/>
<path d="M3798 3523 c7 -3 16 -2 19 1 4 3 -2 6 -13 5 -11 0 -14 -3 -6 -6z"/>
<path d="M3836 3493 c3 -15 18 -39 32 -52 25 -22 257 -175 505 -334 53 -34
168 -108 255 -165 86 -57 407 -266 712 -464 305 -199 688 -448 850 -553 162
-106 500 -325 750 -487 250 -163 518 -336 594 -386 131 -86 141 -91 158 -75
10 9 18 20 18 24 0 4 -61 46 -136 94 -75 48 -328 212 -563 364 -234 153 -502
327 -596 388 -173 112 -1419 919 -1510 978 -27 18 -95 61 -150 97 -750 486
-754 488 -770 488 -8 0 -20 7 -29 15 -16 16 -92 75 -114 89 -10 6 -11 1 -6
-21z"/>
<path d="M2892 3038 c-12 -101 -31 -248 -42 -328 -11 -80 -46 -359 -80 -620
-33 -261 -62 -489 -65 -506 -5 -28 -2 -33 21 -38 14 -4 28 -6 29 -4 2 2 31
224 64 493 34 270 70 560 81 645 23 179 28 245 30 391 1 182 -13 169 -38 -33z"/>
</g>
</svg>
