<svg version="1.1" id="Layer_1" xmlns="http://www.w3.org/2000/svg" xmlns:xlink="http://www.w3.org/1999/xlink" x="0px" y="0px"
	 width="100%" viewBox="0 0 500 500" enable-background="new 0 0 500 500" xml:space="preserve">
<path fill="#000000" opacity="1.000000" stroke="none" 
	d="
M231.000000,501.000000 
	C155.333359,501.000000 80.166649,500.970184 5.000215,501.096222 
	C1.575877,501.101990 0.903036,500.423798 0.905301,497.000000 
	C1.013779,333.000092 1.013772,169.000122 0.905334,5.000236 
	C0.903070,1.576911 1.575827,0.903023 4.999887,0.905288 
	C168.999771,1.013774 332.999725,1.013761 496.999634,0.905352 
	C500.422668,0.903090 501.096985,1.575449 501.094727,4.999768 
	C500.986206,168.999649 500.986237,332.999634 501.094604,496.999542 
	C501.096893,500.422302 500.425354,501.100555 497.000305,501.095856 
	C408.500305,500.974579 320.000153,501.000000 231.000000,501.000000 
z"/>
<path fill="#F4F4F4" opacity="1.000000" stroke="none" 
	d="
M251.995941,337.046204 
	C211.487473,339.250092 172.076340,308.123474 165.456757,264.779175 
	C157.328690,211.557571 194.605377,171.442001 238.094223,165.222855 
	C286.534790,158.295593 329.963928,190.769730 336.568573,239.373352 
	C343.749664,292.219482 305.428925,330.835266 262.980408,336.863647 
	C259.545593,337.351471 255.992294,337.005035 251.995941,337.046204 
z"/>
<path fill="#020202" opacity="1.000000" stroke="none" 
	d="
M252.957245,332.140747 
	C214.649536,333.514099 180.005585,306.815613 171.365234,267.898956 
	C161.338715,222.738815 192.602127,177.473541 238.460632,170.877396 
	C281.641357,164.666412 320.002808,190.753540 330.128967,233.215042 
	C340.688965,277.495697 310.839874,322.854340 265.843262,330.965454 
	C261.730988,331.706696 257.617767,332.179108 252.957245,332.140747 
z"/>
<path fill="#F9F9F9" opacity="1.000000" stroke="none" 
	d="
M233.335480,193.404617 
	C234.140884,191.792862 234.762085,190.500671 235.729187,188.488953 
	C245.715668,209.870560 255.419052,230.646011 265.524628,252.282639 
	C260.664368,252.282639 256.453278,252.238632 252.243835,252.301468 
	C250.180740,252.332260 249.892990,250.582626 249.328781,249.374588 
	C242.743134,235.273636 236.301224,221.105438 229.684189,207.019440 
	C228.644348,204.805878 228.689484,203.029510 229.829041,200.945175 
	C231.096985,198.625961 232.057114,196.138443 233.335480,193.404617 
z"/>
<path fill="#FBFBFB" opacity="1.000000" stroke="none" 
	d="
M286.901947,200.019104 
	C286.901947,216.182343 286.802399,231.848877 286.978912,247.512283 
	C287.018127,250.994217 286.511902,252.471695 282.485718,252.341034 
	C273.688721,252.055557 273.680511,252.309891 273.680511,243.445816 
	C273.680542,226.780487 273.766052,210.114365 273.609772,193.450500 
	C273.577789,190.036469 273.970001,188.462204 278.062958,188.606277 
	C286.892456,188.917084 286.901917,188.648376 286.901947,197.521408 
	C286.901947,198.188019 286.901947,198.854645 286.901947,200.019104 
z"/>
<path fill="#F6F6F6" opacity="1.000000" stroke="none" 
	d="
M245.219772,289.260010 
	C245.218597,292.298859 245.213318,294.964081 245.220093,297.629333 
	C245.225906,299.919128 245.797028,302.059967 241.914001,302.082062 
	C237.911880,302.104858 238.215210,300.019653 238.235504,297.401947 
	C238.294937,289.739807 238.220474,282.076599 238.292099,274.414673 
	C238.304214,273.117523 237.453094,271.080994 239.857224,270.945770 
	C241.723816,270.840729 243.745926,270.241974 245.009415,272.727966 
	C247.551758,277.730225 250.388458,282.582855 253.996262,287.449188 
	C253.996262,283.270874 254.094742,279.089355 253.960190,274.915375 
	C253.876221,272.310730 253.948242,270.746735 257.495392,270.714905 
	C261.193726,270.681732 261.446350,272.235840 261.392639,275.127930 
	C261.253479,282.621368 261.419128,290.120392 261.284607,297.613983 
	C261.257660,299.113037 262.545349,301.711151 259.554443,301.835571 
	C257.122528,301.936737 254.361755,302.947449 252.725220,299.501526 
	C250.822037,295.494080 248.269882,291.794647 245.981522,287.972229 
	C245.956604,287.930634 245.612320,287.983582 245.554031,288.077393 
	C245.402283,288.321777 245.326797,288.613556 245.219772,289.260010 
z"/>
<path fill="#F7F7F7" opacity="1.000000" stroke="none" 
	d="
M214.883911,286.121399 
	C214.883911,287.436890 214.635864,288.372162 214.931091,289.081207 
	C215.768341,291.092102 212.834473,294.344879 216.737961,295.246124 
	C221.662720,296.383209 226.061996,294.250702 227.556335,290.303833 
	C230.057541,283.697571 226.225266,277.557587 219.165665,277.110779 
	C215.742630,276.894135 212.294571,277.073334 208.545944,277.073334 
	C209.593140,272.622223 211.411102,270.077606 216.081970,270.835205 
	C217.867935,271.124939 219.743225,270.809143 221.563461,270.952026 
	C229.281265,271.557922 234.864365,277.011902 235.203949,284.191254 
	C235.683426,294.327545 231.999191,299.541473 223.307617,301.368835 
	C219.002731,302.273956 214.681030,301.657593 210.379501,301.946350 
	C208.257111,302.088837 207.910583,301.046631 207.941238,299.259796 
	C208.018326,294.768402 207.834854,290.269287 208.024918,285.784637 
	C208.110779,283.758453 206.414291,280.767426 211.049362,280.707947 
	C215.303391,280.653351 215.089554,282.855927 214.883911,286.121399 
z"/>
<path fill="#E20000" opacity="1.000000" stroke="none" 
	d="
M211.852249,239.518616 
	C216.663315,236.997528 221.494949,238.814407 226.715424,237.992401 
	C225.653183,242.964279 223.314545,246.915375 221.545563,251.068558 
	C221.019318,252.304092 219.827362,252.475250 218.591507,252.467758 
	C214.623779,252.443726 210.655807,252.458832 205.851944,252.458832 
	C207.974152,247.841461 209.808228,243.851013 211.852249,239.518616 
z"/>
<path fill="#F2F2F2" opacity="1.000000" stroke="none" 
	d="
M277.918030,273.987854 
	C278.436401,272.919556 278.815216,272.190002 279.280518,271.293854 
	C282.629669,275.530548 283.364197,279.560974 280.337402,284.375793 
	C277.981232,288.123840 276.215088,292.317749 274.699615,296.499329 
	C273.019073,301.136536 270.359528,303.259247 265.002625,301.510254 
	C269.248627,292.475891 273.513550,283.401276 277.918030,273.987854 
z"/>
<path fill="#F2F2F2" opacity="1.000000" stroke="none" 
	d="
M287.860291,295.049530 
	C292.913788,294.885040 291.964752,299.205780 294.075165,301.830597 
	C290.135010,301.799286 286.576447,303.302063 284.843872,298.349060 
	C283.713654,295.117950 284.754242,294.710907 287.860291,295.049530 
z"/>
</svg>