<svg version="1.1" id="Layer_1" xmlns="http://www.w3.org/2000/svg" xmlns:xlink="http://www.w3.org/1999/xlink" x="0px" y="0px"
	 width="100%" viewBox="0 0 500 500" enable-background="new 0 0 500 500" xml:space="preserve">
<path fill="#000000" opacity="1.000000" stroke="none" 
	d="
M231.000000,501.000000 
	C155.333359,501.000000 80.166649,500.970184 5.000215,501.096222 
	C1.575877,501.101990 0.903036,500.423798 0.905301,497.000000 
	C1.013779,333.000092 1.013772,169.000122 0.905334,5.000236 
	C0.903070,1.576911 1.575827,0.903023 4.999887,0.905288 
	C168.999771,1.013774 332.999725,1.013761 496.999634,0.905352 
	C500.422668,0.903090 501.096985,1.575449 501.094727,4.999768 
	C500.986206,168.999649 500.986237,332.999634 501.094604,496.999542 
	C501.096893,500.422302 500.425354,501.100555 497.000305,501.095856 
	C408.500305,500.974579 320.000153,501.000000 231.000000,501.000000 
z"/>
<path fill="#F3F3F3" opacity="1.000000" stroke="none" 
	d="
M251.995911,337.022095 
	C211.695984,339.319366 171.892883,308.307129 165.392410,264.404083 
	C157.506546,211.144363 194.809586,171.689941 237.850845,165.211349 
	C286.016083,157.961517 330.905609,191.759445 336.722137,239.988144 
	C343.114227,292.989349 305.129456,330.621429 263.468140,336.792999 
	C259.877594,337.324890 256.155182,336.966766 251.995911,337.022095 
z"/>
<path fill="#020202" opacity="1.000000" stroke="none" 
	d="
M328.765015,227.469482 
	C335.547302,252.671753 332.448669,276.044800 317.777313,297.330994 
	C298.597534,325.158447 263.759918,338.006561 230.796173,329.881287 
	C198.865356,322.010620 174.309479,293.969147 170.195801,260.679016 
	C166.167191,228.077347 182.045670,196.766418 211.035217,180.147369 
	C238.555344,164.370697 274.196686,166.826477 299.839996,186.181671 
	C313.836121,196.745758 323.172546,210.539612 328.765015,227.469482 
z"/>
<path fill="#F8F8F8" opacity="1.000000" stroke="none" 
	d="
M233.338440,193.403412 
	C234.144974,191.791748 234.764862,190.498474 235.515366,188.932693 
	C236.017334,189.542526 236.431732,189.880524 236.635193,190.316895 
	C246.133774,210.688766 255.614044,231.069168 265.485046,252.283829 
	C260.658203,252.283829 256.444183,252.231354 252.232483,252.306076 
	C250.148071,252.343033 249.898163,250.571426 249.340668,249.381470 
	C242.665817,235.134369 236.114319,220.829498 229.463989,206.570801 
	C228.605286,204.729706 228.678833,203.175232 229.611328,201.398422 
	C230.919128,198.906540 231.983383,196.286850 233.338440,193.403412 
z"/>
<path fill="#FBFBFB" opacity="1.000000" stroke="none" 
	d="
M286.905518,200.019104 
	C286.905884,216.182358 286.803375,231.848953 286.985291,247.512268 
	C287.025909,251.007202 286.495758,252.459824 282.492828,252.343597 
	C273.689484,252.087982 273.682922,252.337357 273.683258,243.448730 
	C273.683899,226.783401 273.755585,210.117508 273.623322,193.453217 
	C273.596802,190.112137 273.917572,188.442993 278.063385,188.604431 
	C286.897095,188.948456 286.908142,188.665833 286.905701,197.521423 
	C286.905518,198.188034 286.905426,198.854645 286.905518,200.019104 
z"/>
<path fill="#F5F5F5" opacity="1.000000" stroke="none" 
	d="
M238.258423,296.769653 
	C238.258560,289.150360 238.193665,282.004974 238.312057,274.862610 
	C238.334976,273.480438 237.187668,271.232727 239.896378,270.936707 
	C242.010971,270.705627 243.984406,270.537628 245.269119,273.179260 
	C247.639969,278.054169 250.463684,282.708832 254.013000,287.385742 
	C254.013000,283.217987 254.132660,279.045563 253.970093,274.884155 
	C253.865234,272.199707 254.080429,270.626251 257.561798,270.742554 
	C260.603729,270.844177 261.523834,271.563293 261.424744,274.679535 
	C261.182007,282.314789 261.426575,289.964539 261.273376,297.604401 
	C261.243744,299.083099 262.641235,301.739807 259.566620,301.852417 
	C257.142334,301.941101 254.350754,302.973389 252.747589,299.526001 
	C250.846985,295.438904 248.376953,291.616608 245.210571,288.021027 
	C245.210571,291.105957 245.218582,294.190948 245.207993,297.275848 
	C245.199783,299.666687 245.987869,302.109039 241.753159,302.083435 
	C237.573074,302.058167 238.255936,299.676788 238.258423,296.769653 
z"/>
<path fill="#F6F6F6" opacity="1.000000" stroke="none" 
	d="
M214.888031,286.119293 
	C214.887787,287.435028 214.638321,288.371490 214.934891,289.079132 
	C215.776154,291.086426 212.815750,294.333649 216.739105,295.239044 
	C221.634109,296.368683 226.075455,294.232086 227.559479,290.313690 
	C230.060333,283.710449 226.235550,277.572205 219.162048,277.101471 
	C215.740189,276.873779 212.290649,277.062164 208.553101,277.062164 
	C209.578094,272.638611 211.420227,270.130432 216.062881,270.831543 
	C218.019196,271.127014 220.064117,270.789917 222.041931,270.996826 
	C229.717560,271.799927 234.980087,277.316559 235.224304,284.679810 
	C235.550186,294.505707 231.851791,299.586761 223.325806,301.370148 
	C219.020676,302.270721 214.698761,301.660980 210.396881,301.948425 
	C208.272034,302.090393 207.932129,301.045135 207.962708,299.261414 
	C208.039703,294.769958 207.854752,290.270569 208.047913,285.786133 
	C208.134888,283.767059 206.421829,280.776215 211.058838,280.704987 
	C215.334198,280.639282 215.081085,282.867035 214.888031,286.119293 
z"/>
<path fill="#D60608" opacity="1.000000" stroke="none" 
	d="
M225.881653,238.517548 
	C226.027267,243.070297 223.516403,246.668167 221.962616,250.579193 
	C220.775635,253.566864 217.763458,252.602081 215.389267,252.616364 
	C205.476822,252.675980 205.658722,252.724411 209.564896,243.609451 
	C211.299118,239.562698 213.500259,237.460587 218.097595,238.189026 
	C220.522354,238.573227 223.047302,238.325195 225.881653,238.517548 
z"/>
<path fill="#F2F2F2" opacity="1.000000" stroke="none" 
	d="
M277.910156,274.025726 
	C278.424805,272.957153 278.808197,272.228607 279.207672,271.469452 
	C283.327942,277.700134 283.315979,277.694550 280.424744,283.887299 
	C278.468994,288.076263 276.273041,292.181732 274.695129,296.510681 
	C273.004761,301.148102 270.358337,303.285339 265.004852,301.513702 
	C269.248688,292.494507 273.513763,283.430145 277.910156,274.025726 
z"/>
<path fill="#F2F2F2" opacity="1.000000" stroke="none" 
	d="
M288.667236,295.075073 
	C292.835388,295.575928 291.978912,299.305603 293.822784,301.319244 
	C287.130890,302.520538 284.621429,301.359894 284.369202,296.644012 
	C284.196564,293.416351 286.999542,295.761536 288.667236,295.075073 
z"/>
</svg>