<svg xmlns="http://www.w3.org/2000/svg" xmlns:xlink="http://www.w3.org/1999/xlink" width="1080" zoomAndPan="magnify" viewBox="0 0 810 809.999993" height="1080" preserveAspectRatio="xMidYMid meet" version="1.0"><path fill="#f8f8f8" d="M 337.980469 478.867188 C 338.503906 477.820312 338.902344 476.984375 339.390625 475.96875 C 339.714844 476.363281 339.984375 476.582031 340.117188 476.867188 C 346.269531 490.066406 352.414062 503.273438 358.8125 517.019531 C 355.683594 517.019531 352.953125 516.988281 350.222656 517.035156 C 348.871094 517.058594 348.710938 515.910156 348.347656 515.140625 C 344.023438 505.910156 339.777344 496.640625 335.46875 487.398438 C 334.914062 486.207031 334.960938 485.199219 335.566406 484.046875 C 336.410156 482.433594 337.101562 480.734375 337.980469 478.867188 Z M 337.980469 478.867188 " fill-opacity="1" fill-rule="nonzero"/><path fill="#fbfbfb" d="M 372.691406 483.152344 C 372.691406 493.628906 372.625 503.777344 372.742188 513.929688 C 372.769531 516.195312 372.425781 517.136719 369.832031 517.058594 C 364.128906 516.894531 364.121094 517.054688 364.125 511.296875 C 364.125 500.496094 364.171875 489.699219 364.085938 478.898438 C 364.066406 476.734375 364.273438 475.652344 366.960938 475.757812 C 372.6875 475.980469 372.691406 475.796875 372.691406 481.535156 C 372.691406 481.96875 372.691406 482.398438 372.691406 483.152344 Z M 372.691406 483.152344 " fill-opacity="1" fill-rule="nonzero"/><path fill="#f5f5f5" d="M 341.167969 545.847656 C 341.167969 540.910156 341.125 536.28125 341.203125 531.652344 C 341.21875 530.757812 340.472656 529.300781 342.230469 529.109375 C 343.597656 528.957031 344.878906 528.847656 345.710938 530.5625 C 347.246094 533.71875 349.078125 536.738281 351.375 539.765625 C 351.375 537.066406 351.453125 534.363281 351.347656 531.667969 C 351.28125 529.925781 351.421875 528.90625 353.675781 528.980469 C 355.648438 529.046875 356.242188 529.515625 356.179688 531.535156 C 356.023438 536.480469 356.179688 541.4375 356.082031 546.390625 C 356.0625 547.347656 356.96875 549.070312 354.976562 549.140625 C 353.40625 549.199219 351.597656 549.867188 350.558594 547.632812 C 349.324219 544.984375 347.726562 542.507812 345.671875 540.179688 C 345.671875 542.179688 345.679688 544.175781 345.671875 546.175781 C 345.664062 547.726562 346.175781 549.308594 343.433594 549.292969 C 340.722656 549.273438 341.167969 547.730469 341.167969 545.847656 Z M 341.167969 545.847656 " fill-opacity="1" fill-rule="nonzero"/><path fill="#f6f6f6" d="M 326.023438 538.945312 C 326.023438 539.800781 325.863281 540.40625 326.054688 540.863281 C 326.597656 542.164062 324.679688 544.269531 327.222656 544.855469 C 330.394531 545.589844 333.273438 544.203125 334.234375 541.664062 C 335.855469 537.386719 333.378906 533.40625 328.792969 533.101562 C 326.574219 532.957031 324.339844 533.078125 321.917969 533.078125 C 322.582031 530.210938 323.777344 528.585938 326.785156 529.039062 C 328.054688 529.230469 329.378906 529.011719 330.660156 529.148438 C 335.632812 529.667969 339.042969 533.242188 339.203125 538.015625 C 339.414062 544.382812 337.015625 547.671875 331.492188 548.828125 C 328.703125 549.414062 325.902344 549.015625 323.113281 549.203125 C 321.738281 549.296875 321.515625 548.617188 321.535156 547.460938 C 321.585938 544.550781 321.464844 541.636719 321.589844 538.730469 C 321.648438 537.421875 320.539062 535.484375 323.542969 535.4375 C 326.3125 535.394531 326.148438 536.839844 326.023438 538.945312 Z M 326.023438 538.945312 " fill-opacity="1" fill-rule="nonzero"/><path fill="#d60608" d="M 333.148438 508.101562 C 333.242188 511.050781 331.613281 513.382812 330.609375 515.917969 C 329.839844 517.851562 327.886719 517.226562 326.347656 517.238281 C 319.925781 517.273438 320.042969 517.304688 322.574219 511.398438 C 323.699219 508.777344 325.125 507.414062 328.105469 507.886719 C 329.675781 508.136719 331.3125 507.976562 333.148438 508.101562 Z M 333.148438 508.101562 " fill-opacity="1" fill-rule="nonzero"/><path fill="#f2f2f2" d="M 366.863281 531.109375 C 367.195312 530.417969 367.445312 529.945312 367.703125 529.453125 C 370.371094 533.492188 370.363281 533.488281 368.492188 537.5 C 367.222656 540.214844 365.800781 542.875 364.777344 545.679688 C 363.683594 548.683594 361.96875 550.070312 358.5 548.921875 C 361.25 543.078125 364.011719 537.203125 366.863281 531.109375 Z M 366.863281 531.109375 " fill-opacity="1" fill-rule="nonzero"/><path fill="#f2f2f2" d="M 373.832031 544.75 C 376.535156 545.074219 375.980469 547.492188 377.171875 548.796875 C 372.835938 549.574219 371.210938 548.824219 371.046875 545.765625 C 370.9375 543.675781 372.753906 545.195312 373.832031 544.75 Z M 373.832031 544.75 " fill-opacity="1" fill-rule="nonzero"/></svg>