<?xml version="1.0" encoding="UTF-8"?>
<!DOCTYPE svg PUBLIC "-//W3C//DTD SVG 1.1//EN" "http://www.w3.org/Graphics/SVG/1.1/DTD/svg11.dtd">
<!-- Creator: CorelDRAW -->
<svg xmlns="http://www.w3.org/2000/svg" xml:space="preserve" width="210mm" height="297mm" style="shape-rendering:geometricPrecision; text-rendering:geometricPrecision; image-rendering:optimizeQuality; fill-rule:evenodd; clip-rule:evenodd"
viewBox="0 0 210 297">
 <defs>
  <style type="text/css">
   <![CDATA[
    .str1 {stroke:#1F1A17;stroke-width:0.0762}
    .str0 {stroke:white;stroke-width:2.8222}
    .fil0 {fill:white}
    .fil1 {fill:#DA2E2F}
    .fil2 {fill:white;fill-rule:nonzero}
   ]]>
  </style>
 </defs>
 <g id="Layer_x0020_1">
  <metadata id="CorelCorpID_0Corel-Layer"/>
  <circle class="fil0 str0" cx="114.03" cy="142.999" r="46.054"/>
  <polygon class="fil0" points="110.015,144.13 109.951,144.13 109.272,142.219 109.335,142.219 102.23,122.043 102.196,122.043 102.196,121.673 106.662,109.025 120.743,148.696 111.641,148.696 "/>
  <polygon class="fil1" points="95.2347,148.879 95.2118,148.941 93.1852,148.919 93.207,148.86 91.7555,148.839 94.9002,140.293 103.226,140.389 100.082,148.934 "/>
  <rect class="fil0 str1" x="123.433" y="108.342" width="9.26456" height="40.7862"/>
  <path class="fil0" d="M93.2938 172.196l0 -11.3114 3.1412 -0.0206 0 0 0 0 0 1.0585 0.0155 0.0004 0 0 0 7.2488 2.0963 0c0.9981,0 1.7843,-0.0917 2.3523,-0.2789 0.5676,-0.1867 1.0187,-0.4478 1.3575,-0.7866 0.4759,-0.4721 0.846,-1.1141 1.1109,-1.9143 0.1993,-0.6069 0.3243,-1.3069 0.3734,-2.1066 -0.043,-1.3781 -0.2999,-2.453 -0.7707,-3.2251 -0.5222,-0.8539 -1.152,-1.4215 -1.8979,-1.7098 -0.0515,-0.0196 -0.1063,-0.0384 -0.1633,-0.0566l-0.9149 0 -3.1838 0 -0.9466 -0.0379 -0.1905 0 -1.591 -0.0632 -0.0032 0.0056 -0.555 -0.0276 1.5315 -2.2798 0.3402 -0.0332c0,0 5.6953,-0.0346 6.2081,0.0796 1.2756,0.0318 2.3421,1.0533 3.1015,1.6841l0.0108 0.0084 0.0023 0.0019c0.0763,0.057 0.1516,0.1155 0.2242,0.1768l0.007 0.0071 0.0051 0.0051 0.0019 0.0019 0.007 0.007c0.1413,0.1329 0.1498,0.2723 0.2639,0.4211l0.0244 0.0281 0.0051 0.0094 0.0089 0.0056 0 0c0.4558,0.5419 0.8217,1.1675 1.0903,1.8848 0.0889,0.2331 0.1666,0.4741 0.2354,0.7221l0.0014 0 0.0009 0.0093c0.0477,0.1722 0.0913,0.3482 0.1292,0.5274 0.1113,0.3561 0.2461,0.7234 0.2461,1.1043 0,0.2794 -0.0084,0.5522 -0.0243,0.8166 0.0042,0.1394 0.0079,0.2784 0.0079,0.4211 0,1.1502 -0.1348,2.1689 -0.4052,3.058 -0.2686,0.8872 -0.6111,1.6246 -1.0328,2.2063 -0.4192,0.5821 -0.8792,1.0402 -1.3785,1.3706 -0.4979,0.3355 -1.101,0.5914 -1.8062,0.7627 -0.7099,0.1736 -1.5203,0.2574 -2.4333,0.2574l-5.4664 0 0 -0.0384 -1.1366 0z"/>
  <polygon class="fil2" points="109.136,172.251 109.136,156.846 112.164,156.846 118.469,167.133 118.469,156.846 121.36,156.846 121.36,172.251 118.236,172.251 112.027,162.205 112.027,172.251 "/>
  <path class="fil0" d="M130.26 160.686l0 0 0 0 0 0 -4.1035 11.5616 -3.6339 0.0073 4.7531 -2.7991 -4.7531 2.7991 6.0664 -16.2137 1.4388 4.013 0.2322 0.6318zm-0.602 8.001l3.8316 0.0701 1.228 3.3341 -4.1658 -3.4236 4.1658 3.4236 -3.8248 -0.0303 -1.2348 -3.3739z"/>
  <path class="fil0" d="M95.3959 156.918c0.9057,0.0217 6.5497,-0.1746 7.0704,-0.0551 0.8821,0.2025 1.6358,0.5703 2.2599,1.1012 0.8107,0.6888 1.4206,1.564 1.8223,2.633 0.4054,1.069 0.6063,2.2886 0.6063,3.6625 0,1.1694 -0.1364,2.2061 -0.4126,3.1101 -0.2726,0.904 -0.6206,1.6537 -1.051,2.2456 -0.4269,0.5919 -0.8932,1.0582 -1.4026,1.3954 -0.5058,0.3408 -1.1192,0.5991 -1.8366,0.7748 -0.6292,0.1534 -1.3377,0.2387 -2.1252,0.2579l0 -1.8258c0.743,-0.03 1.3475,-0.1202 1.8095,-0.2723 0.5775,-0.1901 1.0367,-0.4556 1.381,-0.7999 0.4843,-0.4807 0.861,-1.1336 1.13,-1.9479 0.2691,-0.8178 0.4054,-1.8043 0.4054,-2.9702 0,-1.6106 -0.2655,-2.8482 -0.7928,-3.7127 -0.5309,-0.8681 -1.173,-1.4456 -1.9299,-1.7398 -0.445,-0.1727 -1.1148,-0.2735 -2.0032,-0.3048l-4.9309 -1.552z"/>
 </g>
</svg>
