<svg xmlns="http://www.w3.org/2000/svg" xmlns:xlink="http://www.w3.org/1999/xlink" width="1080" zoomAndPan="magnify" viewBox="0 0 810 809.999993" height="1080" preserveAspectRatio="xMidYMid meet" version="1.0"><defs><clipPath id="2b105cc046"><path d="M 228.863281 465.460938 L 276.113281 465.460938 L 276.113281 512.710938 L 228.863281 512.710938 Z M 228.863281 465.460938 " clip-rule="nonzero"/></clipPath></defs><g clip-path="url(#2b105cc046)"><path fill="#f8fbfd" d="M 252.644531 465.460938 C 239.523438 465.460938 228.863281 476.121094 228.863281 489.246094 C 228.863281 502.367188 239.523438 513.027344 252.644531 513.027344 C 265.769531 513.027344 276.429688 502.367188 276.429688 489.246094 C 276.429688 476.121094 265.769531 465.460938 252.644531 465.460938 Z M 252.644531 466.496094 C 265.222656 466.496094 275.394531 476.667969 275.394531 489.246094 C 275.394531 501.820312 265.222656 511.992188 252.644531 511.992188 C 240.070312 511.992188 229.898438 501.820312 229.898438 489.246094 C 229.898438 476.667969 240.070312 466.496094 252.644531 466.496094 Z M 252.644531 466.496094 " fill-opacity="1" fill-rule="nonzero"/></g><path fill="#f8f8f8" d="M 248.738281 475.164062 C 248.960938 474.71875 249.132812 474.359375 249.339844 473.929688 C 249.476562 474.097656 249.59375 474.191406 249.648438 474.3125 C 252.269531 479.933594 254.886719 485.558594 257.613281 491.414062 C 256.277344 491.414062 255.117188 491.398438 253.953125 491.417969 C 253.378906 491.429688 253.308594 490.941406 253.15625 490.613281 C 251.3125 486.679688 249.503906 482.730469 247.667969 478.796875 C 247.433594 478.289062 247.453125 477.859375 247.710938 477.367188 C 248.070312 476.679688 248.363281 475.957031 248.738281 475.164062 Z M 248.738281 475.164062 " fill-opacity="1" fill-rule="nonzero"/><path fill="#fbfbfb" d="M 263.523438 476.988281 C 263.523438 481.449219 263.496094 485.773438 263.546875 490.097656 C 263.558594 491.0625 263.410156 491.460938 262.304688 491.429688 C 259.875 491.359375 259.875 491.429688 259.875 488.976562 C 259.875 484.375 259.894531 479.777344 259.859375 475.175781 C 259.851562 474.253906 259.9375 473.792969 261.082031 473.839844 C 263.519531 473.933594 263.523438 473.855469 263.523438 476.300781 C 263.523438 476.484375 263.523438 476.667969 263.523438 476.988281 Z M 263.523438 476.988281 " fill-opacity="1" fill-rule="nonzero"/><path fill="#f5f5f5" d="M 250.097656 503.691406 C 250.097656 501.589844 250.078125 499.617188 250.113281 497.644531 C 250.117188 497.265625 249.800781 496.644531 250.550781 496.5625 C 251.132812 496.496094 251.675781 496.453125 252.03125 497.179688 C 252.6875 498.527344 253.464844 499.8125 254.445312 501.101562 C 254.445312 499.953125 254.476562 498.800781 254.433594 497.652344 C 254.40625 496.910156 254.464844 496.476562 255.425781 496.507812 C 256.265625 496.535156 256.519531 496.734375 256.492188 497.59375 C 256.421875 499.703125 256.492188 501.8125 256.449219 503.921875 C 256.441406 504.332031 256.828125 505.0625 255.976562 505.09375 C 255.308594 505.117188 254.539062 505.402344 254.097656 504.453125 C 253.570312 503.324219 252.890625 502.269531 252.015625 501.277344 C 252.015625 502.128906 252.019531 502.980469 252.015625 503.832031 C 252.011719 504.492188 252.230469 505.164062 251.0625 505.15625 C 249.90625 505.152344 250.097656 504.492188 250.097656 503.691406 Z M 250.097656 503.691406 " fill-opacity="1" fill-rule="nonzero"/><path fill="#f6f6f6" d="M 243.648438 500.753906 C 243.648438 501.117188 243.578125 501.375 243.660156 501.570312 C 243.890625 502.121094 243.074219 503.019531 244.15625 503.269531 C 245.507812 503.582031 246.734375 502.992188 247.144531 501.910156 C 247.835938 500.085938 246.777344 498.394531 244.828125 498.261719 C 243.882812 498.199219 242.929688 498.253906 241.898438 498.253906 C 242.179688 497.03125 242.691406 496.339844 243.972656 496.53125 C 244.511719 496.613281 245.074219 496.519531 245.621094 496.578125 C 247.738281 496.800781 249.191406 498.324219 249.257812 500.355469 C 249.347656 503.066406 248.328125 504.46875 245.976562 504.960938 C 244.789062 505.210938 243.59375 505.042969 242.40625 505.121094 C 241.820312 505.160156 241.726562 504.871094 241.734375 504.378906 C 241.757812 503.140625 241.707031 501.898438 241.757812 500.660156 C 241.78125 500.101562 241.308594 499.277344 242.589844 499.257812 C 243.769531 499.238281 243.699219 499.855469 243.648438 500.753906 Z M 243.648438 500.753906 " fill-opacity="1" fill-rule="nonzero"/><path fill="#d60608" d="M 246.679688 487.613281 C 246.722656 488.871094 246.027344 489.863281 245.597656 490.941406 C 245.273438 491.769531 244.441406 491.5 243.785156 491.503906 C 241.050781 491.523438 241.097656 491.535156 242.175781 489.019531 C 242.65625 487.902344 243.261719 487.324219 244.53125 487.523438 C 245.203125 487.628906 245.898438 487.5625 246.679688 487.613281 Z M 246.679688 487.613281 " fill-opacity="1" fill-rule="nonzero"/><path fill="#f2f2f2" d="M 261.039062 497.414062 C 261.183594 497.121094 261.289062 496.917969 261.398438 496.707031 C 262.535156 498.429688 262.53125 498.425781 261.734375 500.136719 C 261.195312 501.292969 260.589844 502.425781 260.152344 503.621094 C 259.6875 504.898438 258.957031 505.488281 257.480469 505 C 258.648438 502.511719 259.828125 500.011719 261.039062 497.414062 Z M 261.039062 497.414062 " fill-opacity="1" fill-rule="nonzero"/><path fill="#f2f2f2" d="M 264.007812 503.222656 C 265.160156 503.363281 264.921875 504.390625 265.433594 504.949219 C 263.585938 505.277344 262.894531 504.957031 262.824219 503.65625 C 262.777344 502.765625 263.550781 503.414062 264.007812 503.222656 Z M 264.007812 503.222656 " fill-opacity="1" fill-rule="nonzero"/></svg>